<svg xmlns="http://www.w3.org/2000/svg" width="22.02" height="21.328" viewBox="0 0 22.02 21.328">
  <path id="Icon_ionic-ios-heart" data-name="Icon ionic-ios-heart" d="M18.736,3.938h-.051a5.749,5.749,0,0,0-4.8,2.628,5.749,5.749,0,0,0-4.8-2.628H9.034a5.713,5.713,0,0,0-5.659,5.71A12.3,12.3,0,0,0,5.79,16.353a42.327,42.327,0,0,0,8.095,7.8,42.327,42.327,0,0,0,8.095-7.8A12.3,12.3,0,0,0,24.4,9.647,5.713,5.713,0,0,0,18.736,3.938Z" transform="translate(-2.875 -3.438)" fill="none" stroke="#4aa0ae" stroke-width="1"/>
</svg>
