<svg xmlns="http://www.w3.org/2000/svg" width="74" height="74" viewBox="0 0 74 74">
  <g id="icon_time" transform="translate(-64 -674)">
    <g id="Path_67" data-name="Path 67" transform="translate(64 674)" fill="none">
      <path d="M37,0A37,37,0,1,1,0,37,37,37,0,0,1,37,0Z" stroke="none"/>
      <path d="M 37 1 C 32.13959121704102 1 27.42509841918945 1.951690673828125 22.98748016357422 3.828651428222656 C 18.70074844360352 5.641792297363281 14.85065841674805 8.237663269042969 11.54415893554688 11.54415893554688 C 8.237663269042969 14.85065841674805 5.641792297363281 18.70074844360352 3.828651428222656 22.98748016357422 C 1.951690673828125 27.42509841918945 1 32.13959121704102 1 37 C 1 41.86040878295898 1.951690673828125 46.57489776611328 3.828651428222656 51.01251983642578 C 5.641792297363281 55.29924774169922 8.237663269042969 59.14933776855469 11.54415893554688 62.45584106445312 C 14.85065841674805 65.76233673095703 18.70074844360352 68.35820770263672 22.98748016357422 70.17134857177734 C 27.42509841918945 72.04830932617188 32.13959121704102 73 37 73 C 41.86040878295898 73 46.57489776611328 72.04830932617188 51.01251983642578 70.17134857177734 C 55.29924774169922 68.35820770263672 59.14933776855469 65.76233673095703 62.45584106445312 62.45584106445312 C 65.76233673095703 59.14933776855469 68.35820770263672 55.29924774169922 70.17134857177734 51.01251983642578 C 72.04830932617188 46.57489776611328 73 41.86040878295898 73 37 C 73 32.13959121704102 72.04830932617188 27.42509841918945 70.17134857177734 22.98748016357422 C 68.35820770263672 18.70074844360352 65.76233673095703 14.85065841674805 62.45584106445312 11.54415893554688 C 59.14933776855469 8.237663269042969 55.29924774169922 5.641792297363281 51.01251983642578 3.828651428222656 C 46.57489776611328 1.951690673828125 41.86040878295898 1 37 1 M 37 0 C 57.43453216552734 0 74 16.56547164916992 74 37 C 74 57.43453216552734 57.43453216552734 74 37 74 C 16.56547164916992 74 0 57.43453216552734 0 37 C 0 16.56547164916992 16.56547164916992 0 37 0 Z" stroke="none" fill="#0fa2b0"/>
    </g>
    <path id="Icon_awesome-question-circle" data-name="Icon awesome-question-circle" d="M22.7,11.629A11.067,11.067,0,1,1,11.629.562,11.066,11.066,0,0,1,22.7,11.629ZM11.926,4.222a5.78,5.78,0,0,0-5.2,2.845.536.536,0,0,0,.121.726L8.4,8.966a.535.535,0,0,0,.744-.095c.8-1.011,1.344-1.6,2.557-1.6.912,0,2.039.587,2.039,1.471,0,.668-.552,1.012-1.452,1.516-1.05.588-2.439,1.321-2.439,3.153v.178a.536.536,0,0,0,.535.535h2.5a.536.536,0,0,0,.535-.535v-.059c0-1.27,3.712-1.323,3.712-4.76C17.127,6.185,14.442,4.222,11.926,4.222Zm-.3,11.067a2.053,2.053,0,1,0,2.053,2.053A2.055,2.055,0,0,0,11.629,15.289Z" transform="translate(89.371 699.371)" fill="#0fa2b0"/>
  </g>
</svg>
