<svg xmlns="http://www.w3.org/2000/svg" width="112.303" height="266.033" viewBox="0 0 112.303 266.033">
  <g id="magonc" transform="translate(-2993.176 -6933)">
    <path id="Subtraction_2" data-name="Subtraction 2" d="M23.62,76.762h0a12.7,12.7,0,0,0-4.079-.488c-.422,0-.854-.009-1.279-.026l-.589-.107-.058-.011-3.449-.623L9.15,72.986,8.93,72.78l-.015-.014-.419-.39A15.785,15.785,0,0,1,7.209,70.92a8.389,8.389,0,0,0-2.714-2.479,8.007,8.007,0,0,0-1.3-2.93,13.04,13.04,0,0,1-.955-1.737,27.866,27.866,0,0,1-2.211-9.64,28.785,28.785,0,0,1,1.274-9.7A77.066,77.066,0,0,1,7.884,28.873,58.446,58.446,0,0,1,17.4,16.3,54.2,54.2,0,0,1,30.06,6.948,64.311,64.311,0,0,1,46.047,1.066,40.666,40.666,0,0,1,55.117,0a34.944,34.944,0,0,1,12.53,2.3c.2.077.407.152.607.225a7.086,7.086,0,0,1,3.394,2.032l-.826.321c-.564.22-1.148.447-1.726.661A77.629,77.629,0,0,0,46.926,18.1,80.711,80.711,0,0,0,30.053,37.194c-.062.1-.127.195-.194.295-.6.9-1.286,1.926,0,2.817a1.521,1.521,0,0,0,.865.312c.7,0,1.207-.653,1.7-1.284l.115-.148A88.832,88.832,0,0,1,50.575,21.9a102.2,102.2,0,0,1,21.97-11.878,3.745,3.745,0,0,0,2.7-2.827l.2.03h.006l.356.055a24.192,24.192,0,0,1,3.05,13.085,47.118,47.118,0,0,1-2.69,13.049,72.668,72.668,0,0,1-7.1,15.534A58.109,58.109,0,0,1,58.948,61.261,57.184,57.184,0,0,1,45.8,70.266,69.954,69.954,0,0,1,29.6,75.891c-1.334.294-2.72.462-4.06.625-.629.076-1.279.155-1.917.246ZM60.248,33.787c-3.961,5.788-7.7,11.256-12.52,16.373a99.328,99.328,0,0,1-9.19,8.65c-.347.278-.7.566-1.043.845a32.02,32.02,0,0,1-5.334,3.773,10.828,10.828,0,0,0,1.309.082h.069c3.3-.01,6.543-1.479,9.328-2.855A34.883,34.883,0,0,0,55.16,49.477a28.758,28.758,0,0,0,5.088-15.691Z" transform="translate(3008.225 7055.647)" fill="#905637" stroke="rgba(0,0,0,0)" stroke-width="1"/>
    <path id="Path_134" data-name="Path 134" d="M193.854,80.8c-8.013.225-15.052-1.977-20.226-8.449C169.455,67.137,168.4,61,168.805,54.5c.712-11.475,6.389-20.64,13.581-29.078,6.65-7.8,14.017-15,19.756-23.561a3.231,3.231,0,0,1,.866-.64c-.194,1.528-.31,3.069-.6,4.578-2.621,13.8-6.924,27.211-9.3,41.073a82.965,82.965,0,0,0,.742,33.931" transform="translate(2880.907 6933.125)" fill="#358500"/>
    <path id="Path_135" data-name="Path 135" d="M203.747,2.465c2.815,12.247,9.318,23.026,13.783,34.616a60.6,60.6,0,0,1,4.239,15.885,21.82,21.82,0,0,1-4.564,16.01c-5,6.372-11.847,9.616-19.8,10.651-.217-.277-.564-.526-.63-.834-2.637-12.4-2.159-24.78.125-37.183,1.6-8.675,3.485-17.292,4.859-26.015.689-4.373.737-8.847,1.99-13.13" transform="translate(2883.592 6933.252)" fill="#358500"/>
    <path id="Path_136" data-name="Path 136" d="M204.3,2.717c-1.252,4.283-1.3,8.757-1.99,13.13-1.373,8.723-3.26,17.34-4.859,26.015-2.284,12.4-2.761,24.782-.125,37.183.066.309.413.558.63.834.389,4.869,2.276,9.377,3.432,14.059,1.6,6.5,3.243,12.982,3.646,19.681.351,5.828.149,11.584-4.051,16.313l-.557-.087a3.037,3.037,0,0,0-3.205-2.62c2.974-3.636,2.953-7.952,2.6-12.255-.838-10.082-4.02-19.648-6.7-29.321-.438-1.582-.931-3.148-1.4-4.721A82.965,82.965,0,0,1,190.979,47c2.376-13.863,6.68-27.275,9.3-41.073.287-1.509.4-3.051.6-4.578A1.564,1.564,0,0,1,202.952.074c1.316.345,1.511,1.446,1.347,2.643" transform="translate(2883.04 6933)" fill="#ceb4a6"/>
    <path id="Path_138" data-name="Path 138" d="M140.691,177.489l5.015,2.521c-1.4,5.374-.77,10.8-.008,16.133,2.634,18.423-3.422,34.321-13.8,49.043a5.3,5.3,0,0,1-.5.657c-.892.921-1.54,2.824-3.189,1.7-1.8-1.231-.058-2.407.615-3.438,8.733-13.366,14.7-27.489,12.374-43.974-.552-3.9-.98-7.826-1.38-11.749a27.048,27.048,0,0,1,.867-10.891" transform="translate(2876.685 6951.146)"/>
    <path id="Path_139" data-name="Path 139" d="M200.494,115.427a3.037,3.037,0,0,1,3.205,2.62,3.79,3.79,0,0,1-2.7,2.828c-15.832,6.286-29.421,15.668-40.006,29.161-.693.883-1.433,1.979-2.677,1.119-1.435-.99-.423-2.156.19-3.112a77.216,77.216,0,0,1,39.043-31.654c.854-.316,1.7-.654,2.552-.981a1.843,1.843,0,0,0,.389.019" transform="translate(2879.769 6944.799)"/>
    <path id="Path_140" data-name="Path 140" d="M137.05,173.365c1.772.865,2.65,2.64,4,3.934-14.067,9.171-20.067,22.554-20.367,38.934-.024,1.348.859,3.481-1.215,3.653-2.262.188-1.865-2.118-1.917-3.543-.638-17.552,5.3-32.147,19.5-42.978" transform="translate(2875.671 6950.724)"/>
    <path id="Path_141" data-name="Path 141" d="M147.726,180.448a18.269,18.269,0,0,1,5.358.514,53.963,53.963,0,0,0,7.668,26.079c.56.951,1.516,1.948.242,2.85-1.333.944-2.245-.173-2.918-1.161-5.828-8.552-9.656-17.847-10.351-28.282" transform="translate(2878.76 6951.448)"/>
  </g>
</svg>
