<svg xmlns="http://www.w3.org/2000/svg" width="24.245" height="21.398" viewBox="0 0 24.245 21.398">
  <path id="share" d="M27.537,15.3,19,6.9a.427.427,0,0,0-.339-.153c-.266.013-.605.21-.605.509v4.214a.268.268,0,0,1-.218.261C9.347,13.1,5.771,19.786,4.506,26.724c-.048.274.3.528.466.312C8.07,22.93,11.84,20.25,17.8,20.2c.133,0,.254.165.254.306v4.137a.514.514,0,0,0,.877.337l8.6-8.548a.721.721,0,0,0,.212-.535A.88.88,0,0,0,27.537,15.3Z" transform="translate(-3.999 -6.25)" fill="none" stroke="#0fa2b0" stroke-width="1"/>
</svg>
