<svg xmlns="http://www.w3.org/2000/svg" width="22.521" height="20.912" viewBox="0 0 22.521 20.912">
  <path id="star" d="M23.916,10.614H16.522L14.275,3.908a.814.814,0,0,0-1.528,0L10.5,10.614H3.054a.807.807,0,0,0-.8.8.591.591,0,0,0,.015.136.773.773,0,0,0,.337.568L8.68,16.4,6.347,23.186a.807.807,0,0,0,.276.9.778.778,0,0,0,.452.2.986.986,0,0,0,.5-.181l5.932-4.228,5.932,4.228a.942.942,0,0,0,.5.181.722.722,0,0,0,.447-.2.8.8,0,0,0,.276-.9L18.336,16.4l6.027-4.323.146-.126a.843.843,0,0,0,.261-.538A.851.851,0,0,0,23.916,10.614Z" transform="translate(-2.25 -3.375)"/>
</svg>
