<svg xmlns="http://www.w3.org/2000/svg" width="74" height="74" viewBox="0 0 74 74">
  <g id="icon_age" transform="translate(-64 -674)">
    <g id="Path_67" data-name="Path 67" transform="translate(64 674)" fill="none">
      <path d="M37,0A37,37,0,1,1,0,37,37,37,0,0,1,37,0Z" stroke="none"/>
      <path d="M 37 1 C 32.13959121704102 1 27.42509841918945 1.951690673828125 22.98748016357422 3.828651428222656 C 18.70074844360352 5.641792297363281 14.85065841674805 8.237663269042969 11.54415893554688 11.54415893554688 C 8.237663269042969 14.85065841674805 5.641792297363281 18.70074844360352 3.828651428222656 22.98748016357422 C 1.951690673828125 27.42509841918945 1 32.13959121704102 1 37 C 1 41.86040878295898 1.951690673828125 46.57489776611328 3.828651428222656 51.01251983642578 C 5.641792297363281 55.29924774169922 8.237663269042969 59.14933776855469 11.54415893554688 62.45584106445312 C 14.85065841674805 65.76233673095703 18.70074844360352 68.35820770263672 22.98748016357422 70.17134857177734 C 27.42509841918945 72.04830932617188 32.13959121704102 73 37 73 C 41.86040878295898 73 46.57489776611328 72.04830932617188 51.01251983642578 70.17134857177734 C 55.29924774169922 68.35820770263672 59.14933776855469 65.76233673095703 62.45584106445312 62.45584106445312 C 65.76233673095703 59.14933776855469 68.35820770263672 55.29924774169922 70.17134857177734 51.01251983642578 C 72.04830932617188 46.57489776611328 73 41.86040878295898 73 37 C 73 32.13959121704102 72.04830932617188 27.42509841918945 70.17134857177734 22.98748016357422 C 68.35820770263672 18.70074844360352 65.76233673095703 14.85065841674805 62.45584106445312 11.54415893554688 C 59.14933776855469 8.237663269042969 55.29924774169922 5.641792297363281 51.01251983642578 3.828651428222656 C 46.57489776611328 1.951690673828125 41.86040878295898 1 37 1 M 37 0 C 57.43453216552734 0 74 16.56547164916992 74 37 C 74 57.43453216552734 57.43453216552734 74 37 74 C 16.56547164916992 74 0 57.43453216552734 0 37 C 0 16.56547164916992 16.56547164916992 0 37 0 Z" stroke="none" fill="#0fa2b0"/>
    </g>
    <path id="streak" d="M16.3,10.19A6.114,6.114,0,1,0,22.419,16.3,6.124,6.124,0,0,0,16.3,10.19ZM32,15.317,25.966,12.3,28.1,5.91A1.1,1.1,0,0,0,26.7,4.516L20.31,6.649,17.292.611a1.1,1.1,0,0,0-1.974,0L12.3,6.643,5.9,4.509A1.1,1.1,0,0,0,4.509,5.9L6.643,12.3.611,15.317a1.1,1.1,0,0,0,0,1.974L6.643,20.3,4.509,26.7A1.1,1.1,0,0,0,5.9,28.1L12.3,25.966,15.311,32a1.1,1.1,0,0,0,1.974,0L20.3,25.966,26.692,28.1A1.1,1.1,0,0,0,28.087,26.7L25.953,20.31,31.985,17.3A1.1,1.1,0,0,0,32,15.317Zm-9.929,6.751a8.151,8.151,0,1,1,0-11.528A8.161,8.161,0,0,1,22.068,22.068Z" transform="translate(84.696 694.696)" fill="#0fa2b0"/>
  </g>
</svg>
