<svg id="LOGO" xmlns="http://www.w3.org/2000/svg" xmlns:xlink="http://www.w3.org/1999/xlink" width="182.65" height="274.017" viewBox="0 0 182.65 274.017">
  <defs>
    <clipPath id="clip-path">
      <rect id="Rectangle_16" data-name="Rectangle 16" width="182.65" height="274.017" fill="none"/>
    </clipPath>
    <filter id="Path_44" x="2.682" y="215.15" width="26.416" height="49.834" filterUnits="userSpaceOnUse">
      <feOffset input="SourceAlpha"/>
      <feGaussianBlur stdDeviation="1.5" result="blur"/>
      <feFlood flood-color="#fff" flood-opacity="0.859"/>
      <feComposite operator="in" in2="blur"/>
      <feComposite in="SourceGraphic"/>
    </filter>
    <filter id="Path_45" x="21.628" y="215.269" width="31.458" height="49.406" filterUnits="userSpaceOnUse">
      <feOffset input="SourceAlpha"/>
      <feGaussianBlur stdDeviation="1.5" result="blur-2"/>
      <feFlood flood-color="#fff" flood-opacity="0.859"/>
      <feComposite operator="in" in2="blur-2"/>
      <feComposite in="SourceGraphic"/>
    </filter>
  </defs>
  <g id="Group_4" data-name="Group 4" clip-path="url(#clip-path)">
    <path id="Path_30" data-name="Path 30" d="M150.554,210.276a40.549,40.549,0,0,0-10.614-11.384,165.756,165.756,0,0,0-41.607-23.409,130.92,130.92,0,0,0-23.156-6.645c.128.249.189.385.265.512q4.713,7.75,9.428,15.5,7.667,12.586,15.343,25.168a92.457,92.457,0,0,0,10.832,15.065c4.73,5.092,10.2,9.019,17.029,10.814,7.305,1.921,13.944.687,19.714-4.306a15.324,15.324,0,0,0,5.456-10.045,17.675,17.675,0,0,0-2.689-11.267m-5.526,4.884a42.4,42.4,0,0,0-7.57-9.4,9.81,9.81,0,0,0-5.16-2.947c2.132-.677,4.482.389,6.245,1.566,5.33,3.619,9.211,9.772,9.4,16.284-.955-1.922-1.85-3.767-2.919-5.506" transform="translate(-19.034 -42.747)" fill="#0fa3b1"/>
    <path id="Path_31" data-name="Path 31" d="M98.1,17.3c.066-5.356,1.043-9.6,3.976-13.213A10.049,10.049,0,0,1,110.336,0a11.533,11.533,0,0,1,8,3.677,21.418,21.418,0,0,1,5.936,12.886,21.433,21.433,0,0,1-1.65,11.693,12.327,12.327,0,0,1-6.209,6.625c-3.748,1.645-7.284.96-10.5-1.4-4.045-2.97-6.162-7.168-7.206-11.955-.359-1.648-.482-3.348-.6-4.225" transform="translate(-24.837 0)" fill="#ceb5a7"/>
    <path id="Path_32" data-name="Path 32" d="M85.75,36.57a13.447,13.447,0,0,1-1.832,6.822C81.195,48,76.1,48.706,72.246,45.006a13.827,13.827,0,0,1-4.053-8.346,13.868,13.868,0,0,1,1.784-9.606c2.692-4.283,7.527-4.965,11.274-1.571A13.782,13.782,0,0,1,85.526,34c.127.85.152,1.715.224,2.574" transform="translate(-17.22 -5.906)" fill="#ceb5a7"/>
    <path id="Path_33" data-name="Path 33" d="M41.643,52.738a20.878,20.878,0,0,1,.757-3.27A5.766,5.766,0,0,1,50.333,46.2c4.2,1.86,6.429,5.3,7.153,9.7a11.058,11.058,0,0,1-.206,4.576c-1.172,4.28-5.216,5.906-9.088,3.71-4.255-2.413-6.142-6.29-6.549-11.449" transform="translate(-10.543 -11.557)" fill="#ceb5a7"/>
    <path id="Path_34" data-name="Path 34" d="M30.472,71.468a11.087,11.087,0,0,1,7.7,4.159A10.648,10.648,0,0,1,40.895,81.9a5.569,5.569,0,0,1-6.414,6.224c-5.108-.553-9.853-5.4-10.062-10.514-.149-3.669,1.918-6.052,6.052-6.138" transform="translate(-6.181 -18.095)" fill="#ceb5a7"/>
    <path id="Path_35" data-name="Path 35" d="M29.954,113.027a10.4,10.4,0,0,1-9.323-8.758A4.743,4.743,0,0,1,25.448,98.8a9.852,9.852,0,0,1,7.95,3.925,8.648,8.648,0,0,1,2.022,4.208c.618,3.7-1.721,6.32-5.467,6.1" transform="translate(-5.215 -25.013)" fill="#ceb5a7"/>
    <path id="Path_36" data-name="Path 36" d="M103.013,71.291c-1.552,5.464-3.229,10.891-4.924,16.312,5.042,5.736,9.812,11.722,14.372,17.859l3.331-9.88c3.08-8.933,6.2-17.85,9.522-26.7a56.348,56.348,0,0,0-5.047-4.178,28.534,28.534,0,0,0-13.9-5.729c-1.049,4.124-2.184,8.222-3.358,12.312" transform="translate(-24.835 -14.933)" fill="#358600"/>
    <path id="Path_37" data-name="Path 37" d="M89.817,85.61c1.618-4.984,3.264-9.958,5.01-14.9,1.394-3.974,2.824-7.933,4.337-11.864A32.651,32.651,0,0,0,82.171,62a48.108,48.108,0,0,0-10.007,6.3A188.775,188.775,0,0,1,89.817,85.61" transform="translate(-18.271 -14.868)" fill="#358600"/>
    <path id="Path_38" data-name="Path 38" d="M131.433,73.148c-3.7,12.738-7.843,25.628-11.937,38.1q4.318,5.907,8.422,11.944,2.953,4.353,5.81,8.766l3.122-8.1c3.023-7.679,6.1-15.336,9.382-22.91-.243-.962-.5-1.921-.748-2.881-.394-1.527-.814-3.051-1.291-4.554a43.387,43.387,0,0,0-6.316-13.047,59.457,59.457,0,0,0-6.445-7.32" transform="translate(-30.255 -18.52)" fill="#358600"/>
    <path id="Path_39" data-name="Path 39" d="M83.217,90.036C77.963,83.7,72.49,77.554,66.721,71.673A50.3,50.3,0,0,0,54.289,87.146a28.713,28.713,0,0,0-3.119,9.945c10.594-2.735,21.309-4.968,32.047-7.055" transform="translate(-12.956 -18.147)" fill="#358600"/>
    <path id="Path_40" data-name="Path 40" d="M173.637,193.683a61.651,61.651,0,0,0-20.78-30.044,1.1,1.1,0,0,1-.444-1.146c.436-3.516.907-7.028,1.255-10.553a125.4,125.4,0,0,0,.443-17.4c-.178-4.441-.5-8.878-.857-13.308-.193-2.374-.526-4.746-.953-7.09-.114-.627-.249-1.25-.393-1.872-2.45,7.459-5.081,14.856-7.758,22.236,0,0-3.4,9.151-3.587,9.662q3.906,6.055,7.7,12.181a40.483,40.483,0,0,1,3.295,6.149c.28.695.51,1.41.748,2.12a1.229,1.229,0,0,1,.171.116,91.178,91.178,0,0,1,18.16,23.536c1.006,1.88,1.967,3.786,3,5.779a1.71,1.71,0,0,0,0-.368" transform="translate(-35.589 -28.426)" fill="#358600"/>
    <path id="Path_41" data-name="Path 41" d="M139.222,173.921a42.125,42.125,0,0,0-3.644-5.792q-4.093-5.854-8.182-11.741l-10.337,1.648c-7.647,1.149-15.3,2.259-22.977,3.192q.917.327,1.84.628c4.146,1.351,8.341,2.554,12.53,3.769,3.4.984,6.847,1.783,10.21,2.863,5.247,1.683,10.436,3.547,15.657,5.31,1.589.537,3.208.989,4.807,1.5.26.082.546.145.816.226-.234-.544-.466-1.084-.72-1.6" transform="translate(-23.82 -39.595)" fill="#358600"/>
    <path id="Path_42" data-name="Path 42" d="M82.814,152.884c8.094-1.706,16.231-3.195,24.374-4.644l9.273-1.564c-4.827-6.922-9.691-13.836-14.681-20.654-7.157,1.108-16.891,2.671-23.8,3.6-7.164,1.008-14.336,1.957-21.528,2.757A28.208,28.208,0,0,0,63.71,141.9c4.742,4.014,10.255,6.7,15.721,9.469,1.1.556,2.231,1.055,3.382,1.511" transform="translate(-14.294 -31.907)" fill="#358600"/>
    <path id="Path_43" data-name="Path 43" d="M54.891,125.219c11.147-2.376,22.361-4.4,33.589-6.35l10.388-1.734c-4.574-6.2-9.261-12.309-14.128-18.263-11.187,2.143-22.406,4.143-33.707,5.591a33.416,33.416,0,0,0-.162,5.364,42.389,42.389,0,0,0,3.093,13.243c.285.735.6,1.448.928,2.15" transform="translate(-12.869 -25.033)" fill="#358600"/>
    <g transform="matrix(1, 0, 0, 1, 0, 0)" filter="url(#Path_44)">
      <path id="Path_44-2" data-name="Path 44" d="M14.135,301.77a19.961,19.961,0,0,1-.164,2.218c-.164,1.561-.081,3.122-.164,4.683a15.477,15.477,0,0,1-.164,2.793v5.586c0,.246.164.329.411.329.739-.082,1.478-.164,2.135-.246l3.122-.493a6.425,6.425,0,0,1,1.15-.164,3.523,3.523,0,0,1,2.054.329,5.523,5.523,0,0,0,.9.575c.328.246.41.329.246.739a3.528,3.528,0,0,0-.083.411.555.555,0,0,1-.328.494c-.411.246-.739.574-1.15.574a4.491,4.491,0,0,0-1.479.493,2.252,2.252,0,0,1-1.067.164,16.044,16.044,0,0,1-1.89.164,3.678,3.678,0,0,1-.9.082l-.411.164a5.377,5.377,0,0,0-1.4.657,9.726,9.726,0,0,1-.9.411.66.66,0,0,0-.494.739c0,.9.083,1.889.164,2.793v1.807a4.829,4.829,0,0,0,.083,1.889v2.054c0,.164.164.246.328.246h.658v.083c.9-.165,1.724-.165,2.546-.329a17.261,17.261,0,0,0,1.972-.493c.9-.081,1.807-.411,2.711-.411a4,4,0,0,1,1.724.246.3.3,0,0,0,.246.083c.165.081.329.081.411.164a3.57,3.57,0,0,1,.575.494.742.742,0,0,1,.246.821c-.164.493-.576.657-.987.9a5.168,5.168,0,0,1-.574.164,1.338,1.338,0,0,0-.576.329,1.1,1.1,0,0,1-.985.411.288.288,0,0,0-.165-.081,22.026,22.026,0,0,1-2.3.246c-.657.164-1.4.164-2.054.329a5.622,5.622,0,0,1-2.054.164h-.164c-.493.165-.986.246-1.478.411a1.314,1.314,0,0,1-1.232,0,1.93,1.93,0,0,1-.821-.658,1.11,1.11,0,0,0-.739-.411.626.626,0,0,1-.329-.081.722.722,0,0,1-.657-.9,1.7,1.7,0,0,0-.082-.9.9.9,0,0,1-.081-.411,18.4,18.4,0,0,1-.083-2.135c.083-.9,0-1.808.164-2.712L9.946,326c0-.164-.083-.246-.165-.411a19.474,19.474,0,0,0-.081-2.136c0-.411-.083-.822-.083-1.231V319.35c0-.574.083-1.15.083-1.725,0-.329-.083-.739-.083-1.068a18.4,18.4,0,0,0,.083-2.136v-.164c.081-1.314.081-2.546.164-3.861a5.376,5.376,0,0,1,.083-1.15c0-.329.081-.575.081-.9V306.37l.246-2.3a14.667,14.667,0,0,0,.165-1.889,19.909,19.909,0,0,0,.164-2.2,2.255,2.255,0,0,0-.083-.739V299a2.213,2.213,0,0,0,0-.739,8.53,8.53,0,0,1-.081-1.4c0-.082,0-.246.081-.246.329-.329.411-.9.822-1.15a.877.877,0,0,1,.9-.247,5.117,5.117,0,0,0,1.561-.081,13.39,13.39,0,0,1,1.807-.246l3.7-.493c.493-.082.985-.082,1.478-.164.083,0,.083-.082.165-.082,1.15,0,2.382-.083,3.532,0a3.123,3.123,0,0,1,2.383,1.232.429.429,0,0,1,.164.329,2.649,2.649,0,0,1-.247,1.4,2.5,2.5,0,0,1-1.314.657,2.116,2.116,0,0,0-1.233.082h-.246a15.178,15.178,0,0,0-1.889.082,10.478,10.478,0,0,1-1.643.082h-.329a3.573,3.573,0,0,1-2.054.246h-.246a5.649,5.649,0,0,1-1.067.164,3.136,3.136,0,0,0-1.233.082c-.574,0-.9.574-1.231.986Z" transform="translate(-2.43 -74.47)" fill="#ceb5a7"/>
    </g>
    <g transform="matrix(1, 0, 0, 1, 0, 0)" filter="url(#Path_45)">
      <path id="Path_45-2" data-name="Path 45" d="M48.978,314.573c0,.082-.165.164-.165.246a9.9,9.9,0,0,1-.657,2.218.3.3,0,0,1-.081.246,4.257,4.257,0,0,0-.493,1.314c-.247.411-.247.9-.657,1.15-.083.493-.411.739-.658,1.15v.082a6.1,6.1,0,0,1-.329,1.314,2.063,2.063,0,0,1-.492,1.15c-.082,0-.082.082-.082.164a.493.493,0,0,1-.083.329c-.247.246-.328.739-.656.985-.082.082-.164.164-.164.246a1.8,1.8,0,0,1-.657,1.15,1.688,1.688,0,0,0-.329.493c-.082.246-.164.575-.575.657-.082,0-.247.082-.247.164-.081.246-.328.411-.246.739a.08.08,0,0,1-.082.082c-.329.164-.329.575-.494.821l-.574.822c-.165.246-.083.328.164.328a13.309,13.309,0,0,0,1.807-.082c.329,0,.657-.082.9-.082h.165a3.633,3.633,0,0,1,1.643-.164,4.733,4.733,0,0,1,1.069.081c.411,0,.821.082,1.149.082,1.068,0,2.054-.082,3.039,0a2.917,2.917,0,0,1,1.644.657,1.469,1.469,0,0,1,.493,1.479,5.365,5.365,0,0,0-.083,1.149,1.115,1.115,0,0,1-.163.658,1.1,1.1,0,0,1-1.314.41,2.927,2.927,0,0,0-.822-.164.544.544,0,0,1-.493-.083,1.353,1.353,0,0,0-.821-.164,6.859,6.859,0,0,1-2.218-.246,1.6,1.6,0,0,0-1.069-.083c-.411.083-.821.083-1.232.164-.329.082-.656-.081-.987.165a1.4,1.4,0,0,1-.41-.165h-.328a4.694,4.694,0,0,1-2.383.082.694.694,0,0,0-.575,0,.782.782,0,0,1-.575.164H38.217c-.329,0-.741.082-1.151.082a1.411,1.411,0,0,1-.821-.082c-.165-.081-.411,0-.577,0-.656,0-.739-.081-.656-.657v-.411a1.563,1.563,0,0,1,.656-1.232,4.024,4.024,0,0,0,1.48-1.807,15.585,15.585,0,0,1,.82-1.643,7.234,7.234,0,0,1,.741-.9c0-.082.082-.164.163-.246.165-.739.823-1.232,1.069-1.972.081,0,.081-.082.164-.164a.364.364,0,0,0,.247-.493l.081-.082a7.679,7.679,0,0,0,.822-1.643c.246-.411.41-.9.657-1.4.163-.493.411-1.068.657-1.643.246-.657.739-1.15.739-1.889a.623.623,0,0,1,.164-.329.76.76,0,0,0,.246-.739.081.081,0,0,1,.083-.082,14.158,14.158,0,0,0,.657-1.972L52.349,299.7c.083-.493,0-.657-.493-.822-.493-.246-.985-.164-1.478-.493a.726.726,0,0,0-.576.081,3.6,3.6,0,0,1-1.314.165H47.174a.3.3,0,0,1-.246-.082.867.867,0,0,0-.987,0c-.164.082-.329,0-.494.082h-.491a4.136,4.136,0,0,1-.986.164h-.164a9.816,9.816,0,0,1-3.451.246.622.622,0,0,0-.411.081,1.35,1.35,0,0,1-1.149.165,1.52,1.52,0,0,1-.985-.575,3.845,3.845,0,0,1-.577-.575.625.625,0,0,1-.163-.329c-.083-.329-.083-.575-.165-.822a.586.586,0,0,1,.246-.493,12.211,12.211,0,0,0,1.068-.822l.411-.246,1.479-.739h.246A11,11,0,0,0,42,294.6a9.021,9.021,0,0,0,2.137-.164,4.647,4.647,0,0,1,1.068-.083,19.814,19.814,0,0,0,2.219,0,23.277,23.277,0,0,1,2.382-.081c.74,0,1.479.081,2.137.081a.629.629,0,0,1,.41.165,5.26,5.26,0,0,1,1.151.657,2.871,2.871,0,0,0,1.972.657.7.7,0,0,1,.657.574,2.433,2.433,0,0,0,.574.9,2.523,2.523,0,0,1,.74,1.562c0,.329,0,.329-.329.246a2.3,2.3,0,0,1-.081.74c-.083.164-.329.164-.411.329Zm3.947-14.384s-.083-.082-.083,0,0,.081.083.081Z" transform="translate(-8.86 -74.51)" fill="#ceb5a7"/>
    </g>
    <path id="Path_46" data-name="Path 46" d="M82.248,299.505a17.114,17.114,0,0,1,0,2.054,8.066,8.066,0,0,0,.246,2.793c.081.165.081.411.164.657,0,1.315,0,2.547.082,3.861,0,.246.082.411.082.658l.164,1.15a3.056,3.056,0,0,0,.164,1.478v.657a24.367,24.367,0,0,0,.246,3.45,20.169,20.169,0,0,1,.164,2.218c.082.329.082.658.164.986a1.388,1.388,0,0,1,.083.576,8.6,8.6,0,0,0,.329,2.875,4,4,0,0,0,.329.9,23.012,23.012,0,0,1,.657,2.547,15.708,15.708,0,0,0,.986,3.861.738.738,0,0,0,.082.41c.246.987.493,2.054.822,3.04.246.986.329,1.889.493,2.874.082.494.164.987.657,1.233.329.329.493.246.575-.164a6.572,6.572,0,0,0,.246-1.232c.082-.329.246-.575.329-.9l.246-.657a.3.3,0,0,1,.082-.246,7.815,7.815,0,0,0,.493-1.479,11,11,0,0,1,.411-1.561A6.77,6.77,0,0,0,91.12,329a.3.3,0,0,1,.082-.246,17.121,17.121,0,0,0,.246-1.889,7.4,7.4,0,0,1,.246-1.314,1.221,1.221,0,0,0,.164-.739,4.323,4.323,0,0,1,.246-.986c.082-.329.082-.657.164-.9l.164-.411a1.04,1.04,0,0,1,.082-.493v-.164c.329-.411.164-.9.329-1.315a.892.892,0,0,0,.082-.411,1.776,1.776,0,0,1,.164-.985.08.08,0,0,1,.082-.082,14.676,14.676,0,0,1,.164-1.89,13.5,13.5,0,0,1,.164-1.889c0-.081.082-.081.082-.164-.246-.328,0-.656,0-.986v-2.3c0-.082.082-.165.082-.246,0-.246.082-.412.082-.657a.9.9,0,0,0,.082-.411,1.039,1.039,0,0,0,.082-.493c-.082-.164,0-.411,0-.574,0-.657.082-1.314.082-1.972.082-.9.164-1.726.164-2.63a12.861,12.861,0,0,1,.411-2.464c0-.329.082-.74.082-1.068v-3.862a4.306,4.306,0,0,0-.082-2.054,2.8,2.8,0,0,1,.082-.822l.494-1.4c.081-.082.081-.164.081-.328a1.138,1.138,0,0,1,1.561-.9c.411.081.657.411.986.657.246.246.576.492.493.985.411.493.246,1.232.575,1.889.082.246.082.494.164.74a2.962,2.962,0,0,0,.164.9,3.128,3.128,0,0,1,.083,1.232,1.182,1.182,0,0,0-.165.575,17.306,17.306,0,0,0-.164,2.054c-.082.494-.082.987-.164,1.479a24.3,24.3,0,0,1-.246,2.546,1.608,1.608,0,0,0-.082.576l-.246,1.4a3.074,3.074,0,0,1-.082.821c0,.329-.082.74-.082,1.068l-.246,2.876a4.117,4.117,0,0,0-.164.986,1.809,1.809,0,0,0-.082.657l-.246,2.218a4.722,4.722,0,0,0-.081,1.067l-.247.987a15.137,15.137,0,0,0-.329,1.889,5.158,5.158,0,0,1-.246,1.561,5.021,5.021,0,0,0-.246,1.067c-.082.083,0,.246-.082.329-.246.574-.329,1.232-.575,1.889-.082.329-.082.657-.164.985l-.246,1.314a13.141,13.141,0,0,0-.411,1.726c-.082.493-.164.9-.246,1.314L94.16,330.8a19.351,19.351,0,0,1-.821,3.122,18.53,18.53,0,0,0-.657,1.971,10.382,10.382,0,0,1-.493,1.479,9.543,9.543,0,0,0-.329,1.478,7.7,7.7,0,0,1-.329,1.315l-.493,2.382c-.082.41-.164.739-.575.821-.164,0-.246.164-.329.329a.3.3,0,0,1-.329.329,1.384,1.384,0,0,0-1.15.329c-.493.493-1.068.246-1.643.164-.246-.164-.575-.246-.657-.411-.164-.164-.082-.41-.082-.656-.082-.164-.082-.329-.164-.494a11.421,11.421,0,0,0-.821-2.135,8.464,8.464,0,0,1-.329-.822,5.718,5.718,0,0,0-.411-1.067c-.164-.411-.164-.9-.493-1.233a8.923,8.923,0,0,1-.575-1.971c0-.739-.329-1.4-.329-2.137a2.767,2.767,0,0,0-.411-1.15,3.686,3.686,0,0,1-.246-.9,8.67,8.67,0,0,1-.493-1.56V329.9a11.87,11.87,0,0,1-.9-2.382,4.083,4.083,0,0,1-.246-1.068,13.668,13.668,0,0,0-.657-2.629,6.526,6.526,0,0,1-.493-1.807,2.444,2.444,0,0,0-.164-.821,1.769,1.769,0,0,1-.164-.9l-.246-.9a2.423,2.423,0,0,1-.164-1.068A7.514,7.514,0,0,1,78.88,317c0-.246-.164-.493-.164-.657,0-.246.164-.411,0-.657a4.963,4.963,0,0,1-.411-1.479v-.328a2.531,2.531,0,0,0-.246-1.562,1.215,1.215,0,0,1-.082-.574,7.025,7.025,0,0,0,0-1.314c-.082-.822-.164-1.562-.246-2.383v-.328a.3.3,0,0,1-.082-.246,9.368,9.368,0,0,0-.164-2.136v-.083a2.562,2.562,0,0,0-.246-1.724v-.246c0-.822.082-1.726,0-2.547,0-.328-.082-.656-.082-1.067v-.493l.493-2.383c-.164-.574.164-1.068.164-1.643-.082-.081,0-.246,0-.329a7.547,7.547,0,0,1,.411-.821,1.419,1.419,0,0,0,.164-.986.825.825,0,0,1,.411-.9,3.57,3.57,0,0,0,.575-.329l.246-.246a.777.777,0,0,1,1.315.165.994.994,0,0,0,.411.411,2.234,2.234,0,0,1,.493,1.4c.082.657.082,1.4.164,2.054l.246,2.628a7.01,7.01,0,0,1,0,1.314" transform="translate(-19.535 -73.739)" fill="#358600"/>
    <path id="Path_47" data-name="Path 47" d="M119.52,341.8c.9-.165,1.725-.165,2.546-.329a17.419,17.419,0,0,0,1.972-.494c.9-.081,1.807-.41,2.711-.41a4,4,0,0,1,1.724.246.3.3,0,0,0,.246.082c.165.081.329.081.411.164a3.532,3.532,0,0,1,.575.493.744.744,0,0,1,.246.821c-.164.493-.576.656-.987.9a4.868,4.868,0,0,1-.574.164,1.339,1.339,0,0,0-.576.329,1.1,1.1,0,0,1-.985.41.288.288,0,0,0-.165-.081,22.026,22.026,0,0,1-2.3.246c-.657.165-1.4.165-2.054.329a5.64,5.64,0,0,1-2.054.164H120.1c-.494.165-.987.246-1.479.411a1.311,1.311,0,0,1-1.232,0,1.923,1.923,0,0,1-.821-.658,1.112,1.112,0,0,0-.739-.411.626.626,0,0,1-.329-.081.722.722,0,0,1-.657-.9,1.7,1.7,0,0,0-.082-.9.9.9,0,0,1-.081-.411,18.394,18.394,0,0,1-.083-2.135c.083-.9,0-1.808.164-2.712l-.081-.574c0-.164-.083-.246-.164-.411a19.313,19.313,0,0,0-.082-2.137c0-.41-.083-.821-.083-1.232v-2.876c0-.574.083-1.15.083-1.724,0-.329-.083-.739-.083-1.069a18.388,18.388,0,0,0,.083-2.135v-.165c.082-1.314.082-2.546.164-3.861a5.375,5.375,0,0,1,.083-1.15c0-.328.081-.574.081-.9v-1.971l.246-2.3a14.523,14.523,0,0,0,.165-1.889c.081-.985.246-2.054.246-3.04v-1.642c.081-.822.081-1.644.164-2.465v-3.7l-.246-1.807a2.255,2.255,0,0,0-.083-.739V299a2.214,2.214,0,0,0,0-.739,8.525,8.525,0,0,1-.081-1.4c0-.081,0-.246.081-.246.329-.328.411-.9.822-1.15a.878.878,0,0,1,.9-.246,5.14,5.14,0,0,0,1.561-.081,13.488,13.488,0,0,1,1.807-.247l3.7-.493c.493-.082.986-.082,1.478-.164.083,0,.083-.083.165-.083,1.15,0,2.382-.082,3.532,0a3.123,3.123,0,0,1,2.383,1.233.426.426,0,0,1,.164.328,2.656,2.656,0,0,1-.246,1.4,2.506,2.506,0,0,1-1.314.657,2.128,2.128,0,0,0-1.233.082h-.246a15.185,15.185,0,0,0-1.889.083,10.571,10.571,0,0,1-1.643.081h-.329a3.572,3.572,0,0,1-2.054.246h-.246a5.579,5.579,0,0,1-1.067.164,3.151,3.151,0,0,0-1.233.082c-.574,0-.9.575-1.231.987a.609.609,0,0,0-.083.41,8,8,0,0,1,.164,1.972c0,.329.083.739.083,1.069,0,.246-.083.411-.083.657v6.243c0,.739-.164,1.562-.246,2.382a19.935,19.935,0,0,1-.164,2.218c-.164,1.561-.081,3.122-.164,4.683a15.486,15.486,0,0,1-.164,2.793v5.585c0,.246.164.329.411.329.739-.083,1.478-.165,2.135-.246l3.122-.493a6.369,6.369,0,0,1,1.15-.164,3.523,3.523,0,0,1,2.054.328,5.581,5.581,0,0,0,.9.576c.328.246.411.328.246.739a3.544,3.544,0,0,0-.082.411.555.555,0,0,1-.329.493c-.411.246-.739.575-1.15.575a4.487,4.487,0,0,0-1.479.493,2.265,2.265,0,0,1-1.068.164,15.885,15.885,0,0,1-1.889.164,3.687,3.687,0,0,1-.9.082l-.411.164a5.411,5.411,0,0,0-1.4.657,9.718,9.718,0,0,1-.9.411.658.658,0,0,0-.493.739c0,.9.082,1.889.164,2.793v1.807a4.834,4.834,0,0,0,.083,1.89v2.054c0,.164.164.246.328.246h.658Z" transform="translate(-28.95 -74.466)" fill="#358600"/>
    <path id="Path_48" data-name="Path 48" d="M140.68,325.377v-4.719a8.34,8.34,0,0,1,.262-2.533l.175-1.485a1.111,1.111,0,0,1,.087-.525,3.783,3.783,0,0,0,.087-1.4,20.625,20.625,0,0,1,.35-2.447c.087-.786.262-1.485.35-2.272a7.215,7.215,0,0,1,.349-1.311c.262-.786.35-1.66.612-2.447a1.234,1.234,0,0,1,.174-.524,31.444,31.444,0,0,1,.961-3.059c0-.087.087-.176.087-.262a8,8,0,0,0,.786-2.01,8.512,8.512,0,0,1,.962-2.01c.175-.261.262-.524.436-.786l1.049-1.486a2.665,2.665,0,0,1,.7-.7l.612-.612c.786-.612,1.486-1.223,2.272-1.748a18.361,18.361,0,0,1,2.622-1.224,8.456,8.456,0,0,1,3.32-.087,5.332,5.332,0,0,1,1.136.261,3.156,3.156,0,0,1,.786.349,3.745,3.745,0,0,0,.612.35l.35.263a1.985,1.985,0,0,1,.874,1.659v.35a1.591,1.591,0,0,1-.874,1.485,1.207,1.207,0,0,0-.35.263c-.437.261-.437.174-.874-.087a.479.479,0,0,0-.437-.262c-.35-.175-.786-.263-1.136-.438a4.113,4.113,0,0,0-2.709,0,.986.986,0,0,1-.7.087h-.175c-.35.263-.786.35-1.049.7a.716.716,0,0,1-.436.437,2.24,2.24,0,0,0-1.4,1.135,1.883,1.883,0,0,1-.436.35,1.553,1.553,0,0,0-.612.7l-.786,1.66c-.087.35-.261.7-.349,1.049-.175.524-.35,1.136-.524,1.66l-.262.874c-.175.612-.437,1.137-.612,1.748a11.342,11.342,0,0,0-.612,2.883,5.161,5.161,0,0,1-.436,1.66v.087c-.088.7-.262,1.4-.35,2.1a5.894,5.894,0,0,1-.176,1.223c-.087,1.486-.174,3.059-.35,4.544-.087.875-.087,1.835-.175,2.709,0,.786.087,1.573.087,2.272a10.65,10.65,0,0,0,0,2.359,47.166,47.166,0,0,1,.087,4.98c0,.176.088.35.088.525.261.873.261,1.747.612,2.621.087.263,0,.612.087.874l.787,2.272a11.508,11.508,0,0,0,1.659,2.535.189.189,0,0,0,.176.175c.611.35,1.048.961,1.748,1.136a7.782,7.782,0,0,0,1.311.437,2.128,2.128,0,0,0,1.922-.35,15.209,15.209,0,0,0,1.223-1.049,5.022,5.022,0,0,0,.874-1.049l.35-.612a7.157,7.157,0,0,0,1.049-1.748l.874-1.573a19.06,19.06,0,0,0,1.4-3.933l.525-1.572c.087-.088.087-.175.087-.35.087-.523.175-1.136.262-1.748l.263-1.4a10.29,10.29,0,0,0,.436-1.748c.176-.786.35-1.66.612-2.535a.32.32,0,0,1,.087-.261,4.416,4.416,0,0,1,.175-1.049v-.437a5.375,5.375,0,0,1,.175-1.66.656.656,0,0,0,.087-.437v-.524c.088-.612.263-1.224.35-1.835v-.087a3.9,3.9,0,0,1,.087-1.748c-.174-.437,0-.787,0-1.224a.7.7,0,0,0-.786-.786,4.376,4.376,0,0,0-1.835.176h-.263a1.216,1.216,0,0,0-.961.174c-.35.087-.612.349-1.049.349-.087,0-.175,0-.175.087-.35.437-.874.263-1.311.437-.087.087-.262,0-.35,0a4.951,4.951,0,0,1-.7-.611,4.766,4.766,0,0,1-.612-.787,2.845,2.845,0,0,1-.35-1.223A1.013,1.013,0,0,1,154.4,310l.874-.35a7.665,7.665,0,0,1,1.223-.261,9.931,9.931,0,0,1,2.184-.525l2.621-.262a2.477,2.477,0,0,0,1.4-.524c.175,0,.263-.175.35-.262a3.751,3.751,0,0,0,.437-.087,2.359,2.359,0,0,1,1.485.874,3.077,3.077,0,0,1,.263.961c.087.087,0,.263.087.35a4.865,4.865,0,0,1,.437,2.447v1.4a2.444,2.444,0,0,0,.087.787v.349c-.087.961-.087,1.922-.262,2.97-.087,1.137-.175,2.359-.349,3.5a23.04,23.04,0,0,1-.524,2.359l-.263,1.66c0,.262-.087.524-.087.7a3.852,3.852,0,0,0-.175.874.662.662,0,0,0-.087.35,18.36,18.36,0,0,0-.524,2.1c-.174.873-.437,1.659-.611,2.533,0,.35-.263.7-.263,1.049a14.371,14.371,0,0,1-1.049,2.709,11.64,11.64,0,0,1-.612,1.574l-.524.874a.929.929,0,0,0-.087,1.049.788.788,0,0,1,0,.874c-.087,0-.087.087-.087.174a1.84,1.84,0,0,1-1.137,1.4l-.087.088c-.35.612-.961,1.049-1.311,1.573-.524.7-1.4.874-1.922,1.4a4.835,4.835,0,0,1-2.622.786,7.813,7.813,0,0,1-2.008-.175H150.9a2.4,2.4,0,0,1-1.135-.175,4.5,4.5,0,0,1-1.748-.786l-.7-.262a1.741,1.741,0,0,1-1.049-.7l-.349-.349a5.738,5.738,0,0,1-1.311-1.223,2.3,2.3,0,0,0-.437-.524,1.573,1.573,0,0,1-.437-.612,14.309,14.309,0,0,0-.873-1.572,4.831,4.831,0,0,1-.874-1.922l-.35-.874a5.107,5.107,0,0,1-.35-1.574,7.366,7.366,0,0,0-.35-2.359c-.087-.261-.087-.611-.174-.874,0-.437-.088-.961-.088-1.485v-4.631Zm8.3,18.787-.087-.087-.087.087h.174Z" transform="translate(-35.618 -73.832)" fill="#358600"/>
    <path id="Path_49" data-name="Path 49" d="M194.266,342.319a2.442,2.442,0,0,1,.164-.986c.164-.575.246-1.151.411-1.807l.493-2.3a9.064,9.064,0,0,0,.164-1.479,4,4,0,0,0,.082-.986.3.3,0,0,1,.082-.246c0-.246.082-.411.082-.657.082-.987.164-1.89.329-2.875a.783.783,0,0,0-.493-.822,1.589,1.589,0,0,0-1.068,0c-.329,0-.658.082-.9-.082a.494.494,0,0,0-.329-.082,6.642,6.642,0,0,1-1.314.082,7.081,7.081,0,0,1-1.315-.082,1.168,1.168,0,0,0-.492.164,3.509,3.509,0,0,1-.986.329,5.473,5.473,0,0,0-1.15.081,7.769,7.769,0,0,0-1.314.329,1.187,1.187,0,0,0-.575.164.52.52,0,0,0-.411.493,11.28,11.28,0,0,0,.164,1.725.3.3,0,0,1,.083.246,11.192,11.192,0,0,0,.164,2.383v.164a9.618,9.618,0,0,0,.329,2.63,11.034,11.034,0,0,0,.164,1.643l.246,1.068c.082.082.164.164.164.246a14.542,14.542,0,0,1,.082,1.889,1.622,1.622,0,0,1-.493.986c-.083,0-.164.082-.246.082a1.313,1.313,0,0,1-.822-.411c-.082-.246-.329-.329-.575-.411a2.027,2.027,0,0,1-1.561-1.562v-.164a.869.869,0,0,0-.083-.657c-.164-.246-.246-.576-.41-.821-.082-.164-.082-.329-.164-.493a1.481,1.481,0,0,1-.164-.822c-.082-.411-.246-.822-.329-1.151,0-.246-.083-.493-.083-.656a18.638,18.638,0,0,0-.492-3.2c0-.082-.082-.082-.082-.164.164-.739-.246-1.479-.246-2.3l-.246-2.3c-.083-.246-.329-.493-.164-.74a12.366,12.366,0,0,1-.082-2.464v-6.079c0-.822.164-1.643.164-2.465.083-.164,0-.328.083-.411a14.8,14.8,0,0,1,.164-1.889,13.457,13.457,0,0,1,.165-1.808,8.013,8.013,0,0,1,.164-1.4c0-.165.082-.329.082-.493l.246-1.807c.082-.986.082-2.054.246-3.122a6.055,6.055,0,0,1,.411-1.643l.493-1.478.986-3.122c.164-.493.41-.9.575-1.4a11.444,11.444,0,0,1,.985-2.3l.165-.411a6.094,6.094,0,0,1,.575-.986,1.152,1.152,0,0,0,.246-.329,5.524,5.524,0,0,1,.9-1.15c.164-.081.246-.246.41-.493a.717.717,0,0,1,1.151-.328.64.64,0,0,0,.656-.083,1.264,1.264,0,0,1,1.315,0,6.038,6.038,0,0,0,1.15.329,2.07,2.07,0,0,1,1.232.493c.082.081.164.164.246.164a2.863,2.863,0,0,1,1.067.9,1.981,1.981,0,0,0,.822.821c.246.246.493.411.574.739a.43.43,0,0,0,.165.329,10.883,10.883,0,0,1,1.314,2.054,5.751,5.751,0,0,1,.411,1.067v.083a6.914,6.914,0,0,1,.657,2.218.614.614,0,0,1,.082.41,3.618,3.618,0,0,0,.164,1.314,12.873,12.873,0,0,0,.657,2.383,5.54,5.54,0,0,1,.164,1.15,9.089,9.089,0,0,0,.164,1.56v.74a3.367,3.367,0,0,0-.082.9,7.7,7.7,0,0,1,.164,1.889,5.474,5.474,0,0,0,.083,1.15,7.025,7.025,0,0,1,0,1.314,1.4,1.4,0,0,0,.082.574,7.59,7.59,0,0,1,.081,1.315c.083.081,0,.164,0,.246a5.549,5.549,0,0,0-.081,1.642c0,.329.081.658-.165.9v.165a4.921,4.921,0,0,1,0,1.561,14.053,14.053,0,0,0-.081,1.807c0,.574.082,1.067.082,1.643a3.37,3.37,0,0,0-.082.411.287.287,0,0,0-.082.164c.246.657-.164,1.315-.082,1.89,0,.164-.082.329-.082.493a11.611,11.611,0,0,0-.576,3.368c-.081.493.083,1.068,0,1.56a9.1,9.1,0,0,1-.164,1.562c-.164,1.232-.493,2.382-.74,3.615v.081a3.18,3.18,0,0,1-.164,1.233,6.561,6.561,0,0,1-.246,1.232l-.246.986-.494,1.807c-.081.329-.081.575-.164.822a.8.8,0,0,1-1.232.657l-.822-.493c-.164-.164-.329-.329-.329-.493a3.406,3.406,0,0,1-.246-1.314Zm2.465-34.421h.082v-.576a2.252,2.252,0,0,0-.164-1.067.3.3,0,0,1-.082-.246c-.164-.9-.329-1.807-.575-2.711-.083-.411-.164-.822-.246-1.315l-.246-1.314a.3.3,0,0,0-.082-.246,10.694,10.694,0,0,0-.658-1.4,3.653,3.653,0,0,0-.492-.985,1.2,1.2,0,0,0-.739-.493,4.718,4.718,0,0,0-1.15-.411,1.45,1.45,0,0,0-1.972.821,8.344,8.344,0,0,1-.739,1.479,11.7,11.7,0,0,0-.986,2.054,9.934,9.934,0,0,0-.987,3.368c-.081.574-.246,1.067-.328,1.561a14.031,14.031,0,0,1-.576,1.725,9.327,9.327,0,0,0-.492,3.368c0,.821-.164,1.643-.082,2.464a23.724,23.724,0,0,1-.329,2.547c0,.657-.164,1.232-.164,1.889v.329a3.4,3.4,0,0,0-.246,1.314v.576a6.948,6.948,0,0,0,0,1.314c0,.164.082.246,0,.329a2.4,2.4,0,0,0-.083,1.314c.083.164,0,.246,0,.411a4.383,4.383,0,0,0,.165,1.807c.081.165,0,.411,0,.576,0,.328,0,.328.328.411a1.035,1.035,0,0,0,.494-.083,4.061,4.061,0,0,1,2.217-.246h.165a5.873,5.873,0,0,1,1.15-.081c.411,0,.821-.165,1.232-.165h1.889c.493,0,.9.246,1.4,0h.082c.492.083.986.083,1.4.165.329,0,.494-.082.494-.493v-.329a21.187,21.187,0,0,0,.246-3.942c0-.493.082-1.069.082-1.562.082-.739.082-1.478.164-2.135a8.942,8.942,0,0,1,.082-1.479v-.574c0-.986,0-1.972.081-2.957,0-.165.083-.411,0-.576,0-.821-.164-1.643-.164-2.382a18.746,18.746,0,0,0-.164-2.054" transform="translate(-45.79 -74.163)" fill="#358600"/>
    <path id="Path_50" data-name="Path 50" d="M214.333,342.155c-.081-.822-.246-1.889-.328-2.957a13.143,13.143,0,0,1-.083-2.546.894.894,0,0,0,0-.658c0-1.068-.164-2.054-.164-3.039-.082-.822-.164-1.726-.164-2.63a3.993,3.993,0,0,1,.082-.985,6.685,6.685,0,0,0,.082-1.808c-.082-.821-.164-1.725-.164-2.546,0-.411.082-.822.082-1.233a4.008,4.008,0,0,1,.082-1.4v-1.478a1.813,1.813,0,0,0-.082-.658,2.8,2.8,0,0,1-.082-.822,20.775,20.775,0,0,0-.082-2.3,1.6,1.6,0,0,0-.082-.657v-3.121a17.873,17.873,0,0,1,.082-2.957c.082-.987,0-1.89.082-2.794,0-.739.082-1.479.082-2.218V302.97a1.4,1.4,0,0,0,.082-.575c0-.822-.082-1.725-.082-2.546v-.658c0-.246.082-.492.082-.821a3.058,3.058,0,0,0-.164-1.479.624.624,0,0,1,.246-.739.584.584,0,0,0,.246-.493c-.081-.329.165-.493.329-.657l1.479-.986c.082-.082.165,0,.246,0,.165.576.575.822.9,1.232a7.575,7.575,0,0,0,.658,1.068,27.371,27.371,0,0,1,2.135,2.957,5.256,5.256,0,0,1,.657,1.15,11.6,11.6,0,0,1,.657,1.479,8.658,8.658,0,0,1,.493.9,2.479,2.479,0,0,0,.329.656c0,.082,0,.247.082.247a4.586,4.586,0,0,1,.822,1.971c.247.739.329,1.479.575,2.218a18.46,18.46,0,0,0,1.069,2.711c.41.658.574,1.4.9,2.054a1.953,1.953,0,0,1,.164.658c.411.985.74,1.971,1.068,3.039a2.962,2.962,0,0,0,.329.9,19.242,19.242,0,0,1,.74,1.972c.246,1.15.657,2.217.985,3.367a6.109,6.109,0,0,1,.329,1.314,11.964,11.964,0,0,0,.411,1.314c.083.411.246.9.329,1.4a18.8,18.8,0,0,1,.657,2.3,3.418,3.418,0,0,0,.328,1.232v.164c.165.246.329.411.411.329.164-.083.081-.246.081-.411v-1.15c0-.083.083-.246,0-.329a.388.388,0,0,1,.083-.493.619.619,0,0,1,.082-.328v-.987c-.165-.329,0-.656.081-1.067a3.55,3.55,0,0,0,.083-.411,1.708,1.708,0,0,1,.081-.9v-.492a1.429,1.429,0,0,1,.082-.822c.164-.164.329-.328.246-.574l.083-.083c.492,0,.164-.329.164-.574a1.756,1.756,0,0,0,0-.658c-.082-.246-.082-.492-.329-.657-.081-.081-.164-.246-.081-.328a.493.493,0,0,0,0-.576c-.083-.164,0-.246,0-.411a10.126,10.126,0,0,1,.164-1.643v-.246c0-.657-.082-1.4-.082-2.054-.081-.164,0-.328,0-.493a8.925,8.925,0,0,0,.329-2.136c0-.493.083-.986.083-1.479v-.081c.081-.822.081-1.644.164-2.465.081-.9,0-1.807,0-2.711a2.294,2.294,0,0,1,.081-.739,1.04,1.04,0,0,0,.082-.492,6.166,6.166,0,0,1,.083-1.233,15.923,15.923,0,0,0,0-1.971c0-.247.081-.494.081-.822a5.806,5.806,0,0,0-.164-2.054,6.151,6.151,0,0,1,.083-1.232v-.822a3.343,3.343,0,0,1,.657-1.972c.082-.082.246-.164.41-.329l.329-.246c.164-.411.574-.493.9-.575a.423.423,0,0,1,.574.246,4.413,4.413,0,0,0,.576,1.068c.164.164.164.411.246.576.081.328.164.739.246,1.067v.329c-.082,1.068,0,2.136,0,3.2v2.3a9.23,9.23,0,0,0-.329,2.629,17.872,17.872,0,0,0-.082,2.137,14.788,14.788,0,0,0-.164,1.889,2.747,2.747,0,0,0-.082,1.15,1.68,1.68,0,0,1,0,.9l-.164,1.643c-.164.822-.164,1.643-.246,2.464a17.293,17.293,0,0,1-.164,2.054v.246a18.567,18.567,0,0,1-.083,2.136,14.884,14.884,0,0,1-.246,1.89v.081a15.8,15.8,0,0,1,0,1.972l-.246,2.382c0,.411-.081.822-.081,1.314v9.119c0,.492-.083,1.067-.083,1.561a3.958,3.958,0,0,0,.083.985,4.673,4.673,0,0,1-.246,1.479,1.537,1.537,0,0,0-.164.657.984.984,0,0,1-.165.657,3.591,3.591,0,0,0-.739,1.479,1.358,1.358,0,0,1-.822.821,1.642,1.642,0,0,1-2.3-.985l-.985-1.726a12.6,12.6,0,0,1-.576-2.382,2.453,2.453,0,0,0-.164-.822c0-.41-.083-.821-.083-1.314a.081.081,0,0,0-.082-.083,14.717,14.717,0,0,1-.492-2.628,5.38,5.38,0,0,0-.412-1.643,9.927,9.927,0,0,1-.739-2.547,8.9,8.9,0,0,1-.411-1.4.3.3,0,0,1-.081-.246,15.566,15.566,0,0,0-.74-2.793,5.47,5.47,0,0,1-.493-1.642c0-.165,0-.246-.081-.329-.246-.657-.329-1.232-.576-1.889a22.762,22.762,0,0,1-.821-2.135,4.729,4.729,0,0,0-.411-1.15,14.6,14.6,0,0,1-.985-3.04c-.165-.575-.411-1.067-.576-1.643-.493-.739-.657-1.561-1.15-2.218a6.864,6.864,0,0,1-.739-2.054c-.165-.821-.411-1.56-.576-2.3a.3.3,0,0,0-.082-.246c-.329-.739-.739-1.479-1.068-2.136a1.811,1.811,0,0,0-.328-.411c-.083-.164-.246-.246-.329-.164a.621.621,0,0,0-.164.329c0,.986,0,2.054-.083,3.04l-.082.822a18.017,18.017,0,0,0-.081,2.054,5.37,5.37,0,0,0-.083,1.15,4.464,4.464,0,0,1-.082,1.478v.411a27.816,27.816,0,0,1,.246,3.7,6.221,6.221,0,0,1,.082,1.233v12.322c0,1.232.083,2.464.164,3.614,0,.74.082,1.4.082,2.137a6.057,6.057,0,0,0,.083,1.724v.083a6.117,6.117,0,0,0,.164,1.724,15.882,15.882,0,0,0,.494,3.45c.164.494.164.494-.247.74a8.1,8.1,0,0,0-1.15.657,4.535,4.535,0,0,1-.656.41.958.958,0,0,1-1.315-.41,4.477,4.477,0,0,1-.411-2.63" transform="translate(-54.029 -74.329)" fill="#358600"/>
    <path id="Path_51" data-name="Path 51" d="M33.01,360.368c.246,0,.822.082,1.315.082.411.082.9.082,1.4.164a3.076,3.076,0,0,1,.821.082,8.939,8.939,0,0,1,1.479.082,7.225,7.225,0,0,0,1.889,0c1.233.082,2.383.082,3.615.082.739,0,1.4-.164,2.054-.164a16.025,16.025,0,0,1,2.054-.164c.082.082.246,0,.329-.082a3.077,3.077,0,0,1,.9-.082.3.3,0,0,1,.247.082l1.232.9a.939.939,0,0,1,.411,1.068c-.164.986-.164.986-1.068,1.479l-1.725.986a.8.8,0,0,1-.74-.082.615.615,0,0,0-.411-.082l-2.382.246c-.9.083-1.725.083-2.628.083h-3.04c-.164,0-.328.081-.493.081h-.9c-.081,0-.164-.081-.246-.081a8.278,8.278,0,0,1-2.464-.083c-.574-.082-1.231-.082-1.807-.164a4,4,0,0,0-.986-.082c-.575.082-1.149.082-1.807.164-.492,0-.985.082-1.478.082-.9-.082-1.807-.164-2.711-.164h-.493a46.124,46.124,0,0,0-5.833-.164c-.164,0-.328-.082-.492-.082a1.4,1.4,0,0,0-.411-.164c-.492.082-.985,0-1.478.082a7.922,7.922,0,0,1-1.4,0c-.246,0-.575-.082-.821-.082H11.98c-.246,0-.492.082-.739.082-.083,0-.165.082-.165,0a20.011,20.011,0,0,0-2.218-.082,5.547,5.547,0,0,1-1.15-.164H6.065a2.291,2.291,0,0,0-.739-.081H3.273a3.968,3.968,0,0,1-.987-.083c-.329-.164-.657-.164-.9-.411-.082-.082-.246-.082-.329-.164-.575-.164-.739-.329-.739-.821a1.329,1.329,0,0,0-.246-.739.628.628,0,0,1,.164-.739A4.021,4.021,0,0,1,1.3,360.2a1.331,1.331,0,0,1,.739-.246,15.828,15.828,0,0,1,1.972-.082c.329,0,.657.082.986.082H10.83c.329,0,.739-.082,1.15-.082h.575c1.4,0,2.711,0,4.107.082.987,0,2.054,0,3.04.083a15.706,15.706,0,0,0,2.792.081c.822.082,1.725.082,2.629.164a15.952,15.952,0,0,1,1.972.164h.986c.987,0,1.89,0,2.875-.082a16.992,16.992,0,0,1,2.054,0" transform="translate(0 -91.115)" fill="#0fa3b1"/>
  </g>
</svg>
